<?xml version="1.0" encoding="UTF-8" standalone="no"?>
<!DOCTYPE svg PUBLIC "-//W3C//DTD SVG 1.1//EN" "http://www.w3.org/Graphics/SVG/1.1/DTD/svg11.dtd">
<svg width="100%" height="100%" viewBox="0 0 686 473" version="1.1" xmlns="http://www.w3.org/2000/svg" xmlns:xlink="http://www.w3.org/1999/xlink" xml:space="preserve" xmlns:serif="http://www.serif.com/" style="fill-rule:evenodd;clip-rule:evenodd;stroke-linejoin:round;stroke-miterlimit:2;">
    <rect x="0" y="0" width="686" height="473" style="fill:white;"/>
    <path d="M386.969,309.999L386.969,91.719L371.499,91.72L371.499,309.999L386.969,309.999ZM167.124,166.25L167.124,118.594L162.281,118.594L151.813,132.031L151.813,166.25L113.063,166.25L113.063,178.75L151.813,178.75L151.813,282.188C151.813,291.771 154.989,299.271 161.343,304.688C167.698,310.104 175.614,312.813 185.093,312.813C194.781,312.813 204.677,310.365 214.781,305.469L214.781,290.782C204.781,295.469 196.031,297.812 188.531,297.812C178.739,297.812 172.724,295.651 170.484,291.329C168.245,287.005 167.125,277.969 167.125,264.219L167.125,178.75L207.437,178.75L207.437,166.25L167.124,166.25ZM104.781,192.188L104.781,175.625L104.782,175.624C90.928,167.499 78.115,163.437 66.344,163.437C53.428,163.437 42.464,167.265 33.454,174.921C24.443,182.577 19.938,191.874 19.938,202.811C19.938,210.52 22.36,217.525 27.202,223.829C32.046,230.13 42.619,236.51 58.922,242.969C75.224,249.427 85.224,254.766 88.922,258.984C92.619,263.203 94.468,267.812 94.468,272.812C94.468,280.104 91.63,286.094 85.953,290.781C80.276,295.469 73.01,297.813 64.156,297.813C51.03,297.813 35.979,293.438 19,284.688L19,299.688C33.27,308.438 47.645,312.813 62.125,312.813C75.458,312.813 86.656,308.984 95.718,301.328C104.781,293.672 109.312,284.271 109.312,273.125C109.312,264.792 106.812,257.24 101.812,250.468C96.812,243.698 86.161,237.188 69.859,230.938C53.557,224.688 43.609,219.505 40.015,215.391C36.421,211.276 34.625,206.771 34.625,201.875C34.625,195 37.593,189.219 43.531,184.531C49.468,179.844 56.76,177.5 65.406,177.5C77.073,177.5 90.198,182.395 104.781,192.188ZM351.031,166.25L243.531,383.594L227.906,383.594L278.063,282.188L217.593,166.25L233.688,166.25L285.875,266.875L335.405,166.25L351.031,166.25ZM541.656,232.813L428.374,232.813C428.061,235.313 427.904,237.813 427.904,240.313C427.904,256.354 433.634,269.948 445.092,281.093C456.551,292.24 470.092,297.813 485.717,297.813C503.947,297.813 521.759,290.677 539.155,276.406L539.155,293.75C522.697,306.458 504.259,312.813 483.842,312.813C463.113,312.813 445.978,305.625 432.436,291.25C418.894,276.875 412.124,258.594 412.124,236.406C412.124,215.365 418.374,197.943 430.874,184.141C443.374,170.339 459.103,163.438 478.061,163.438C495.874,163.438 510.926,169.661 523.217,182.109C535.509,194.557 541.655,211.459 541.655,232.812L541.656,232.813ZM523.531,220.469L430.405,220.469C433.218,207.135 438.921,196.797 447.515,189.453C456.109,182.109 466.292,178.438 478.062,178.438C502.958,178.438 518.114,192.448 523.531,220.469Z"/>
    <path d="M633.979,236.609C673.824,156.693 672.091,87.398 630.038,51.253C604.514,28.825 566.763,30.104 522.803,46.119L522.321,46.295L522.321,46.335L544.226,41.997L545.158,41.82L547.012,41.478L548.852,41.15L549.767,40.993L551.585,40.69C579.365,36.171 602.259,37.656 622.805,56.211C658.522,88.466 656.42,151.325 626.353,218.725C628.976,224.651 631.518,230.613 633.979,236.609ZM618.4,264.862C616.167,259.311 613.874,253.783 611.523,248.281L611.116,249.015C597.271,273.746 579.939,298.564 559.591,322.227C469.721,421.805 382.313,472.127 315.957,412.055L315.432,411.507L314.403,410.424L313.9,409.889L312.917,408.832L312.437,408.31L311.5,407.28L310.593,406.266L309.717,405.27L308.871,404.291L308.056,403.33L307.271,402.386L306.517,401.46L305.793,400.55L305.443,400.102L304.765,399.219C302.888,396.742 301.377,394.473 300.234,392.415C304.293,401.389 308.946,408.679 314.194,414.285C367.912,469.247 455.574,450.235 569.192,332.589C588.649,309.726 605.044,287.002 618.4,264.862Z"/>
    <path d="M645.666,280.419C636.434,248.018 621.054,211.68 598.394,171.922L598.393,171.922C512.155,20.619 420.712,0.237 360.285,20.619C352.323,23.305 344.595,29.141 337.143,36.616L336.105,37.67C335.932,37.847 335.759,38.025 335.587,38.204L334.554,39.288L334.039,39.837C338.852,35.428 344.445,31.868 350.862,29.262C417.683,2.127 506.801,38.4 584.279,182.317C604.452,219.789 619.7,253.934 629.856,284.316C633.183,281.522 637.39,279.993 641.734,280C643.056,279.999 644.374,280.139 645.666,280.419ZM614.434,442.237C630.83,432.432 635.859,428.238 645.134,408.744C656.367,385.132 659.962,352.815 653.161,313.05C649.905,315.615 645.88,317.006 641.735,317C640.844,317 639.968,316.938 639.115,316.818C654.724,384.669 639,428.648 589.494,442.237C566.022,448.68 522.486,440.263 502.452,433.82L508.428,436.364C548.296,448.045 593.25,454.905 614.434,442.237Z"/>
    <circle cx="296.734" cy="381.5" r="7.5" style="fill:url(#_Radial1);"/>
    <circle cx="641.734" cy="298.5" r="14.5" style="fill:url(#_Radial2);"/>
    <defs>
        <radialGradient id="_Radial1" cx="0" cy="0" r="1" gradientUnits="userSpaceOnUse" gradientTransform="matrix(8.37285,0,0,8.37285,298.555,380.1)"><stop offset="0" style="stop-color:rgb(229,249,255);stop-opacity:1"/><stop offset="0.22" style="stop-color:rgb(178,238,254);stop-opacity:1"/><stop offset="0.57" style="stop-color:rgb(94,217,251);stop-opacity:1"/><stop offset="0.77" style="stop-color:rgb(93,209,241);stop-opacity:1"/><stop offset="1" style="stop-color:rgb(85,196,227);stop-opacity:1"/></radialGradient>
        <radialGradient id="_Radial2" cx="0" cy="0" r="1" gradientUnits="userSpaceOnUse" gradientTransform="matrix(18.2541,0,0,18.2541,647.407,294.854)"><stop offset="0" style="stop-color:rgb(252,213,253);stop-opacity:1"/><stop offset="0.2" style="stop-color:rgb(253,158,255);stop-opacity:1"/><stop offset="0.51" style="stop-color:rgb(245,59,250);stop-opacity:1"/><stop offset="0.82" style="stop-color:rgb(226,47,230);stop-opacity:1"/><stop offset="1" style="stop-color:rgb(207,40,212);stop-opacity:1"/></radialGradient>
    </defs>
</svg>
