<svg width="128" height="128" viewBox="0 0 128 128" fill="none" xmlns="http://www.w3.org/2000/svg">
<g clip-path="url(#clip0_722_6186)">
<path d="M65.3215 5.44372C64.405 4.85209 63.2271 4.85209 62.3107 5.44372L12.2833 37.7422C11.4738 38.2469 10.9766 39.1357 10.9766 40.0973V87.9025C10.9766 88.8451 11.4548 89.7229 12.2466 90.2341L62.3107 122.556C63.2271 123.148 64.405 123.148 65.3215 122.556L115.386 90.2341C116.178 89.7229 116.656 88.8451 116.656 87.9025V40.1044C116.658 39.1426 116.162 38.2493 115.349 37.7422L65.3215 5.44372Z" fill="black"/>
<path d="M111.183 45.0516V82.9487L93.8242 71.7417L102.304 66.2669C103.074 65.7699 103.539 64.9161 103.539 64C103.539 63.0836 103.074 62.2301 102.304 61.7331L93.8245 56.2586L111.183 45.0516Z" fill="#E0C878"/>
<path d="M16.4512 45.0516V82.9487L33.8101 71.7417L25.3303 66.2669C24.5605 65.7699 24.0955 64.9161 24.0955 64C24.0955 63.0836 24.5605 62.2301 25.3303 61.7331L33.8098 56.2586L16.4512 45.0516Z" fill="#E0C878"/>
<path d="M63.8169 36.8855L43.7598 23.9364L63.8169 10.9872L83.8741 23.9364L63.8169 36.8855Z" fill="#19998B"/>
<path d="M63.8169 117.013L43.7598 104.064L63.8169 91.1146L83.8741 104.064L63.8169 117.013Z" fill="#19998B"/>
<path d="M38.8364 100.823L18.7793 87.8737L38.8364 74.9247L58.8939 87.8737L38.8364 100.823Z" fill="#7AC750"/>
<path d="M38.8364 53.0469L18.7793 40.0976L38.8364 27.1485L58.8939 40.0976L38.8364 53.0469Z" fill="#7AC750"/>
<path d="M88.7957 100.823L68.7383 87.8737L88.7957 74.9247L108.853 87.8737L88.7957 100.823Z" fill="#7AC750"/>
<path d="M88.7957 53.0469L68.7383 40.0976L88.7957 27.1485L108.853 40.0976L88.7957 53.0469Z" fill="#7AC750"/>
<path d="M63.818 84.6907L31.7695 64.0001C42.4526 57.103 53.135 50.2065 63.818 43.3094C74.5007 50.2065 85.1837 57.103 95.8665 64.0001L63.818 84.6907Z" fill="#F6F740"/>
</g>
<defs>
<clipPath id="clip0_722_6186">
<rect width="128" height="128" fill="white"/>
</clipPath>
</defs>
</svg>
