<svg width="128" height="128" viewBox="0 0 128 128" fill="none" xmlns="http://www.w3.org/2000/svg">
<g clip-path="url(#clip0_722_6199)">
<g clip-path="url(#clip1_722_6199)">
<path d="M117.342 42.4012V85.4416L97.627 72.7135L107.258 66.4959C108.132 65.9314 108.66 64.9618 108.66 63.9212C108.66 62.8806 108.132 61.9111 107.258 61.3466L97.6273 55.1292L117.342 42.4012Z" fill="#2C675F"/>
<path d="M9.75195 42.4012V85.4416L29.4668 72.7135L19.836 66.4959C18.9619 65.9314 18.4337 64.9618 18.4337 63.9212C18.4337 62.8806 18.9618 61.9111 19.836 61.3466L29.4664 55.1292L9.75195 42.4012Z" fill="#2C675F"/>
<path d="M63.547 33.1271L40.7676 18.4205L63.547 3.71393L86.3261 18.4205L63.547 33.1271Z" fill="#19998B"/>
<path d="M63.547 124.129L40.7676 109.422L63.547 94.7153L86.3261 109.422L63.547 124.129Z" fill="#19998B"/>
<path d="M35.1778 105.742L12.3984 91.0351L35.1778 76.3285L57.9571 91.0351L35.1778 105.742Z" fill="#5A8A36"/>
<path d="M35.1778 51.4818L12.3984 36.7751L35.1778 22.0685L57.9571 36.7751L35.1778 51.4818Z" fill="#5A8A36"/>
<path d="M91.9139 105.742L69.1348 91.0351L91.9139 76.3285L114.693 91.0351L91.9139 105.742Z" fill="#5A8A36"/>
<path d="M91.9139 51.4818L69.1348 36.7751L91.9139 22.0685L114.693 36.7751L91.9139 51.4818Z" fill="#5A8A36"/>
<path d="M63.5464 87.4202L27.1484 63.9212C39.2811 56.0884 51.4135 48.2558 63.5464 40.4229C75.6786 48.2558 87.8116 56.0884 99.9441 63.9212L63.5464 87.4202Z" fill="#7AC750"/>
</g>
</g>
<defs>
<clipPath id="clip0_722_6199">
<rect width="128" height="128" fill="white"/>
</clipPath>
<clipPath id="clip1_722_6199">
<rect width="110.5" height="123.129" fill="white" transform="translate(9 1)"/>
</clipPath>
</defs>
</svg>
